<svg xmlns="http://www.w3.org/2000/svg" xmlns:xlink="http://www.w3.org/1999/xlink" xmlns:lucid="lucid" width="260" height="260"><g transform="translate(-580 -120)" lucid:page-tab-id="L.rQL2_fEUpn"><path d="M820 250c0 60.75-49.25 110-110 110s-110-49.25-110-110 49.25-110 110-110 110 49.25 110 110z" stroke="#fff" stroke-width="3" fill="#fff"/><g filter="url(#a)"><path d="M617.5 187.25c0-3.3 2.7-6 6-6h60.28c3.3 0 6 2.7 6 6v125.5c0 3.3-2.7 6-6 6H623.5c-3.3 0-6-2.7-6-6z" stroke="#000" stroke-opacity="0" stroke-width="3" fill="#fff" fill-opacity="0"/><use xlink:href="#b" transform="matrix(1,0,0,1,617.5,181.25) translate(-4.858024691357919 119.11111111111082)"/></g><g filter="url(#c)"><path d="M689.78 187.25c0-3.3 2.7-6 6-6h74.26c3.3 0 6 2.7 6 6v125.5c0 3.3-2.7 6-6 6h-74.26c-3.3 0-6-2.7-6-6z" stroke="#000" stroke-opacity="0" stroke-width="3" fill="#fff" fill-opacity="0"/><use xlink:href="#d" transform="matrix(1,0,0,1,689.7789536426819,181.25) translate(-1.7870370370369244 119.11111111111082)"/></g><g filter="url(#e)"><path d="M779.66 187.25c0-3.3 2.68-6 6-6h10.84c3.3 0 6 2.7 6 6v125.5c0 3.3-2.7 6-6 6h-10.84c-3.32 0-6-2.7-6-6z" stroke="#000" stroke-opacity="0" stroke-width="3" fill="#fff" fill-opacity="0"/><use xlink:href="#f" transform="matrix(1,0,0,1,779.6553566207067,181.25) translate(-6.077160493827115 119.11111111111082)"/></g><defs><path fill="#0c7cba" d="M176-78C186 10 51 31 16-35c-5-9-9-19-11-32l52-8c4 21 12 37 35 38 23 0 32-16 32-40v-130H75v-41h101v170" id="g"/><use transform="matrix(0.4135802469135792,0,0,0.4135802469135792,0,0)" xlink:href="#g" id="b"/><filter id="a" filterUnits="objectBoundingBox" x="-.08" y="-.01" width="1.14" height="1.07"><feOffset result="offOut" in="SourceAlpha" dx="-.5" dy="3.97"/><feGaussianBlur result="blurOut" in="offOut" stdDeviation="2.5"/><feColorMatrix result="colorOut" in="blurOut" values="0 0 0 0 1 0 0 0 0 1 0 0 0 0 1 0 0 0 1 0"/><feBlend in="SourceGraphic" in2="colorOut"/></filter><path fill="#0c7cba" d="M76-208v77h127v40H76V0H24v-248h183v40H76" id="h"/><use transform="matrix(0.4135802469135792,0,0,0.4135802469135792,0,0)" xlink:href="#h" id="d"/><filter id="c" filterUnits="objectBoundingBox" x="-.06" y="-.01" width="1.12" height="1.07"><feOffset result="offOut" in="SourceAlpha" dx="-.5" dy="3.97"/><feGaussianBlur result="blurOut" in="offOut" stdDeviation="2.5"/><feColorMatrix result="colorOut" in="blurOut" values="0 0 0 0 1 0 0 0 0 1 0 0 0 0 1 0 0 0 1 0"/><feBlend in="SourceGraphic" in2="colorOut"/></filter><path fill="#0c7cba" d="M62-158H24l-5-90h48" id="i"/><use transform="matrix(0.4135802469135792,0,0,0.4135802469135792,0,0)" xlink:href="#i" id="f"/><filter id="e" filterUnits="objectBoundingBox" x="-.24" y="-.01" width="1.44" height="1.07"><feOffset result="offOut" in="SourceAlpha" dx="-.5" dy="3.97"/><feGaussianBlur result="blurOut" in="offOut" stdDeviation="2.5"/><feColorMatrix result="colorOut" in="blurOut" values="0 0 0 0 1 0 0 0 0 1 0 0 0 0 1 0 0 0 1 0"/><feBlend in="SourceGraphic" in2="colorOut"/></filter></defs></g></svg>