<svg id="visual" viewBox="0 0 900 600" width="900" height="600" xmlns="http://www.w3.org/2000/svg" xmlns:xlink="http://www.w3.org/1999/xlink" version="1.1"><g stroke-width="1" stroke-linejoin="bevel"><path d="M503 283L588 265L495 209Z" fill="#f8f8f8" stroke="#f8f8f8"></path><path d="M588 265L610 225L495 209Z" fill="#e7e7e7" stroke="#e7e7e7"></path><path d="M503 283L536 388L588 265Z" fill="#fcfcfc" stroke="#fcfcfc"></path><path d="M588 265L666 327L610 225Z" fill="#e7e7e7" stroke="#e7e7e7"></path><path d="M610 225L592 100L495 209Z" fill="#ffffff" stroke="#ffffff"></path><path d="M629 401L666 327L588 265Z" fill="#eeeeee" stroke="#eeeeee"></path><path d="M610 225L683 113L592 100Z" fill="#fcfcfc" stroke="#fcfcfc"></path><path d="M468 75L413 132L495 209Z" fill="#ebebeb" stroke="#ebebeb"></path><path d="M367 215L380 308L503 283Z" fill="#f8f8f8" stroke="#f8f8f8"></path><path d="M503 283L401 367L536 388Z" fill="#f5f5f5" stroke="#f5f5f5"></path><path d="M367 215L503 283L495 209Z" fill="#fcfcfc" stroke="#fcfcfc"></path><path d="M413 132L367 215L495 209Z" fill="#f1f1f1" stroke="#f1f1f1"></path><path d="M592 100L468 75L495 209Z" fill="#fcfcfc" stroke="#fcfcfc"></path><path d="M536 388L629 401L588 265Z" fill="#e4e4e4" stroke="#e4e4e4"></path><path d="M380 308L401 367L503 283Z" fill="#e4e4e4" stroke="#e4e4e4"></path><path d="M738 167L683 113L610 225Z" fill="#e4e4e4" stroke="#e4e4e4"></path><path d="M592 100L501 0L468 75Z" fill="#e0e0e0" stroke="#e0e0e0"></path><path d="M666 327L738 167L610 225Z" fill="#fcfcfc" stroke="#fcfcfc"></path><path d="M629 401L703 382L666 327Z" fill="#eeeeee" stroke="#eeeeee"></path><path d="M821 323L806 180L738 167Z" fill="#f8f8f8" stroke="#f8f8f8"></path><path d="M401 367L480 471L536 388Z" fill="#fcfcfc" stroke="#fcfcfc"></path><path d="M536 388L630 527L629 401Z" fill="#f8f8f8" stroke="#f8f8f8"></path><path d="M629 401L672 473L703 382Z" fill="#f8f8f8" stroke="#f8f8f8"></path><path d="M280 130L296 233L367 215Z" fill="#ebebeb" stroke="#ebebeb"></path><path d="M367 215L288 278L380 308Z" fill="#e4e4e4" stroke="#e4e4e4"></path><path d="M380 308L317 374L401 367Z" fill="#ebebeb" stroke="#ebebeb"></path><path d="M401 367L378 475L480 471Z" fill="#f8f8f8" stroke="#f8f8f8"></path><path d="M280 130L367 215L413 132Z" fill="#e0e0e0" stroke="#e0e0e0"></path><path d="M577 0L501 0L592 100Z" fill="#f8f8f8" stroke="#f8f8f8"></path><path d="M468 75L422 0L413 132Z" fill="#fcfcfc" stroke="#fcfcfc"></path><path d="M680 0L592 100L683 113Z" fill="#f1f1f1" stroke="#f1f1f1"></path><path d="M680 0L577 0L592 100Z" fill="#ffffff" stroke="#ffffff"></path><path d="M296 233L288 278L367 215Z" fill="#e7e7e7" stroke="#e7e7e7"></path><path d="M288 278L317 374L380 308Z" fill="#ffffff" stroke="#ffffff"></path><path d="M630 527L672 473L629 401Z" fill="#e4e4e4" stroke="#e4e4e4"></path><path d="M501 0L422 0L468 75Z" fill="#e0e0e0" stroke="#e0e0e0"></path><path d="M821 323L666 327L703 382Z" fill="#e0e0e0" stroke="#e0e0e0"></path><path d="M821 323L738 167L666 327Z" fill="#dddddd" stroke="#dddddd"></path><path d="M738 167L822 104L683 113Z" fill="#ffffff" stroke="#ffffff"></path><path d="M761 0L680 0L683 113Z" fill="#fcfcfc" stroke="#fcfcfc"></path><path d="M279 0L280 130L413 132Z" fill="#e4e4e4" stroke="#e4e4e4"></path><path d="M296 233L233 205L288 278Z" fill="#e4e4e4" stroke="#e4e4e4"></path><path d="M317 374L378 475L401 367Z" fill="#f5f5f5" stroke="#f5f5f5"></path><path d="M480 471L630 527L536 388Z" fill="#dddddd" stroke="#dddddd"></path><path d="M818 383L821 323L703 382Z" fill="#e4e4e4" stroke="#e4e4e4"></path><path d="M467 600L630 527L480 471Z" fill="#e4e4e4" stroke="#e4e4e4"></path><path d="M672 473L818 383L703 382Z" fill="#e4e4e4" stroke="#e4e4e4"></path><path d="M280 130L233 205L296 233Z" fill="#fcfcfc" stroke="#fcfcfc"></path><path d="M288 278L239 336L317 374Z" fill="#eeeeee" stroke="#eeeeee"></path><path d="M836 510L818 383L672 473Z" fill="#f1f1f1" stroke="#f1f1f1"></path><path d="M233 205L239 336L288 278Z" fill="#ebebeb" stroke="#ebebeb"></path><path d="M317 374L332 527L378 475Z" fill="#dddddd" stroke="#dddddd"></path><path d="M806 180L822 104L738 167Z" fill="#dddddd" stroke="#dddddd"></path><path d="M900 199L822 104L806 180Z" fill="#fcfcfc" stroke="#fcfcfc"></path><path d="M822 104L761 0L683 113Z" fill="#dddddd" stroke="#dddddd"></path><path d="M280 130L232 87L233 205Z" fill="#dddddd" stroke="#dddddd"></path><path d="M279 0L232 87L280 130Z" fill="#eeeeee" stroke="#eeeeee"></path><path d="M179 527L332 527L317 374Z" fill="#e0e0e0" stroke="#e0e0e0"></path><path d="M378 475L467 600L480 471Z" fill="#f1f1f1" stroke="#f1f1f1"></path><path d="M422 0L279 0L413 132Z" fill="#f1f1f1" stroke="#f1f1f1"></path><path d="M900 316L900 199L821 323Z" fill="#e4e4e4" stroke="#e4e4e4"></path><path d="M821 323L900 199L806 180Z" fill="#e0e0e0" stroke="#e0e0e0"></path><path d="M822 104L900 0L761 0Z" fill="#f5f5f5" stroke="#f5f5f5"></path><path d="M377 600L467 600L378 475Z" fill="#fcfcfc" stroke="#fcfcfc"></path><path d="M818 383L900 316L821 323Z" fill="#f5f5f5" stroke="#f5f5f5"></path><path d="M467 600L627 600L630 527Z" fill="#dddddd" stroke="#dddddd"></path><path d="M730 600L836 510L672 473Z" fill="#dddddd" stroke="#dddddd"></path><path d="M818 383L900 421L900 316Z" fill="#eeeeee" stroke="#eeeeee"></path><path d="M332 527L377 600L378 475Z" fill="#e4e4e4" stroke="#e4e4e4"></path><path d="M118 265L167 376L239 336Z" fill="#f5f5f5" stroke="#f5f5f5"></path><path d="M239 336L167 376L317 374Z" fill="#e7e7e7" stroke="#e7e7e7"></path><path d="M332 527L294 600L377 600Z" fill="#e4e4e4" stroke="#e4e4e4"></path><path d="M118 265L239 336L233 205Z" fill="#f5f5f5" stroke="#f5f5f5"></path><path d="M730 600L672 473L630 527Z" fill="#dddddd" stroke="#dddddd"></path><path d="M836 510L900 421L818 383Z" fill="#fcfcfc" stroke="#fcfcfc"></path><path d="M900 199L900 61L822 104Z" fill="#eeeeee" stroke="#eeeeee"></path><path d="M627 600L730 600L630 527Z" fill="#ebebeb" stroke="#ebebeb"></path><path d="M111 61L126 205L232 87Z" fill="#f8f8f8" stroke="#f8f8f8"></path><path d="M232 87L126 205L233 205Z" fill="#f1f1f1" stroke="#f1f1f1"></path><path d="M126 205L118 265L233 205Z" fill="#f1f1f1" stroke="#f1f1f1"></path><path d="M179 527L294 600L332 527Z" fill="#e0e0e0" stroke="#e0e0e0"></path><path d="M900 61L900 0L822 104Z" fill="#fcfcfc" stroke="#fcfcfc"></path><path d="M730 600L788 600L836 510Z" fill="#e7e7e7" stroke="#e7e7e7"></path><path d="M836 510L900 538L900 421Z" fill="#ffffff" stroke="#ffffff"></path><path d="M279 0L171 0L232 87Z" fill="#f5f5f5" stroke="#f5f5f5"></path><path d="M102 472L179 527L167 376Z" fill="#e0e0e0" stroke="#e0e0e0"></path><path d="M167 376L179 527L317 374Z" fill="#fcfcfc" stroke="#fcfcfc"></path><path d="M171 0L111 61L232 87Z" fill="#e0e0e0" stroke="#e0e0e0"></path><path d="M126 205L0 238L118 265Z" fill="#dddddd" stroke="#dddddd"></path><path d="M900 600L900 538L836 510Z" fill="#e7e7e7" stroke="#e7e7e7"></path><path d="M171 0L138 0L111 61Z" fill="#e0e0e0" stroke="#e0e0e0"></path><path d="M179 527L206 600L294 600Z" fill="#fcfcfc" stroke="#fcfcfc"></path><path d="M60 435L102 472L167 376Z" fill="#ebebeb" stroke="#ebebeb"></path><path d="M179 527L130 600L206 600Z" fill="#e0e0e0" stroke="#e0e0e0"></path><path d="M60 435L167 376L0 310Z" fill="#f8f8f8" stroke="#f8f8f8"></path><path d="M788 600L900 600L836 510Z" fill="#ffffff" stroke="#ffffff"></path><path d="M0 310L167 376L118 265Z" fill="#dddddd" stroke="#dddddd"></path><path d="M102 472L130 600L179 527Z" fill="#e0e0e0" stroke="#e0e0e0"></path><path d="M0 89L126 205L111 61Z" fill="#e7e7e7" stroke="#e7e7e7"></path><path d="M0 89L0 238L126 205Z" fill="#e7e7e7" stroke="#e7e7e7"></path><path d="M0 238L0 310L118 265Z" fill="#f8f8f8" stroke="#f8f8f8"></path><path d="M0 600L130 600L102 472Z" fill="#dddddd" stroke="#dddddd"></path><path d="M0 474L102 472L60 435Z" fill="#f1f1f1" stroke="#f1f1f1"></path><path d="M0 0L0 89L111 61Z" fill="#e0e0e0" stroke="#e0e0e0"></path><path d="M0 310L0 395L60 435Z" fill="#f8f8f8" stroke="#f8f8f8"></path><path d="M0 395L0 474L60 435Z" fill="#f5f5f5" stroke="#f5f5f5"></path><path d="M138 0L0 0L111 61Z" fill="#f1f1f1" stroke="#f1f1f1"></path><path d="M0 474L0 600L102 472Z" fill="#fcfcfc" stroke="#fcfcfc"></path></g></svg>